# xmcd
#
# Track frame offsets: 
#        150
#        14460
#        28547
#        45637
#        66987
#        88605
#        108265
#        126920
#        143757
#        165955
#        185090
#        201060
#        218362
#        236852
#        257480
#        274727
#
# Disc length: 3996 seconds
#
# Revision: 15
# Processed by: cddbd v1.5.2PL0 Copyright (c) Steve Scherf et al.
# Submitted via: ExactAudioCopyFreeDBPlugin 1.0
#
DISCID=dc0f9a10
DTITLE=Jay-Z - The Dynasty Roc La Familia (2000 - )
DYEAR=2000
DGENRE=Hip-Hop
TTITLE0=Intro
TTITLE1=Change The Game (Feat. Beanie Sigel and Memphis Bleek)
TTITLE2=I Just Wanna Love U (Give It 2 Me)
TTITLE3=Streets Is Talking (Feat. Beanie Sigel)
TTITLE4=This Can't Be Life (Feat. Scarface and Beanie Sigel)
TTITLE5=Get Your Mind Right Mami (Feat. Snoop Dogg and Memphis Bleek)
TTITLE6=Stick 2 The Script (Feat. Beanie Sigel)
TTITLE7=You, Me, Him And Her (Feat. Memphis Bleek,Beanie Sigel and Amil)
TTITLE8=Guilty Until Proven Innocent (Feat. R.Kelly)
TTITLE9=Parking Lot Pimpin' (Feat. Beanie Sigel and Memphis Bleek)
TTITLE10=Holla (Feat. Memphis Bleek)
TTITLE11=1-900-Hustler (Feat. Beanie Sigel,Memphis Bleek and Freeway)
TTITLE12=The R.O.C. (Feat. Beanie Sigel and Memphis Bleek)
TTITLE13=Soon You'll Understand
TTITLE14=Squeeze 1st
TTITLE15=Where Have You Been (Feat. Beanie Sigel)
EXTD=YEAR: 2000
EXTT0=
EXTT1=
EXTT2=
EXTT3=
EXTT4=
EXTT5=
EXTT6=
EXTT7=
EXTT8=
EXTT9=
EXTT10=
EXTT11=
EXTT12=
EXTT13=
EXTT14=
EXTT15=
PLAYORDER=
